<svg xmlns="http://www.w3.org/2000/svg" xmlns:xlink="http://www.w3.org/1999/xlink" width="793" zoomAndPan="magnify" viewBox="0 0 594.95996 842.24997" height="1122" preserveAspectRatio="xMidYMid meet" version="1.0"><defs><g/><clipPath id="0e424fd473"><path d="M 0.246094 0 L 594.675781 0 L 594.675781 841.5 L 0.246094 841.5 Z M 0.246094 0 " clip-rule="nonzero"/></clipPath></defs><g clip-path="url(#0e424fd473)"><path fill="#ffffff" d="M 0.246094 0 L 595.214844 0 L 595.214844 841.5 L 0.246094 841.5 Z M 0.246094 0 " fill-opacity="1" fill-rule="nonzero"/><path fill="#f5e9e2" d="M 0.246094 0 L 595.214844 0 L 595.214844 841.5 L 0.246094 841.5 Z M 0.246094 0 " fill-opacity="1" fill-rule="nonzero"/></g><g fill="#773344" fill-opacity="1"><g transform="translate(64.16167, 20.931438)"><g><path d="M 8.570312 -16.175781 C 4.066406 -16.175781 1.078125 -12.683594 1.078125 -7.855469 C 1.078125 -3.214844 3.652344 0.320312 8.269531 0.320312 C 12.453125 0.320312 14.589844 -2.183594 14.886719 -5.054688 L 14.910156 -5.285156 L 12.933594 -5.285156 L 12.890625 -5.054688 C 12.429688 -2.78125 11.027344 -1.242188 8.386719 -1.242188 C 5.261719 -1.242188 3.285156 -4.042969 3.285156 -7.949219 C 3.285156 -11.785156 5.285156 -14.613281 8.523438 -14.613281 C 11.164062 -14.613281 12.566406 -13.074219 13.027344 -10.796875 L 13.074219 -10.566406 L 15.046875 -10.566406 L 15.023438 -10.796875 C 14.703125 -13.898438 12.589844 -16.175781 8.570312 -16.175781 Z M 8.570312 -16.175781 "/></g></g></g><g fill="#773344" fill-opacity="1"><g transform="translate(79.069971, 20.931438)"><g><path d="M 6.730469 -12.5 C 2.597656 -12.5 0.6875 -9.535156 0.6875 -6.089844 C 0.6875 -2.664062 2.597656 0.320312 6.730469 0.320312 C 10.867188 0.320312 12.773438 -2.664062 12.773438 -6.089844 C 12.773438 -9.535156 10.867188 -12.5 6.730469 -12.5 Z M 6.730469 -1.195312 C 4.273438 -1.195312 2.847656 -3.238281 2.847656 -6.089844 C 2.847656 -8.960938 4.273438 -10.980469 6.730469 -10.980469 C 9.191406 -10.980469 10.613281 -8.960938 10.613281 -6.089844 C 10.613281 -3.238281 9.191406 -1.195312 6.730469 -1.195312 Z M 6.730469 -1.195312 "/></g></g></g><g fill="#773344" fill-opacity="1"><g transform="translate(91.382455, 20.931438)"><g><path d="M 12.335938 -16.886719 L 10.363281 -16.886719 L 10.363281 -10.5 L 9.558594 -11.695312 C 8.9375 -12.199219 7.652344 -12.5 6.640625 -12.5 C 3.492188 -12.5 0.6875 -10.40625 0.6875 -5.90625 C 0.6875 -2.34375 2.664062 0.320312 6.226562 0.320312 C 7.464844 0.320312 8.753906 -0.0703125 9.441406 -0.644531 L 10.363281 -1.953125 L 10.363281 0 L 12.335938 0 Z M 6.523438 -1.195312 C 4.089844 -1.195312 2.847656 -3.378906 2.847656 -6.132812 C 2.847656 -9.328125 4.503906 -10.980469 6.640625 -10.980469 C 8.386719 -10.980469 10.363281 -9.789062 10.363281 -6.640625 L 10.363281 -5.972656 C 10.363281 -2.480469 8.546875 -1.195312 6.523438 -1.195312 Z M 6.523438 -1.195312 "/></g></g></g><g fill="#773344" fill-opacity="1"><g transform="translate(104.361123, 20.931438)"><g><path d="M 11.695312 -6.433594 C 11.695312 -9.992188 9.832031 -12.5 6.480469 -12.5 C 3.148438 -12.5 0.6875 -9.992188 0.6875 -6.042969 C 0.6875 -1.746094 3.054688 0.320312 6.226562 0.320312 C 8.730469 0.320312 11.050781 -0.988281 11.535156 -3.929688 L 9.464844 -3.929688 C 9.191406 -2.183594 7.902344 -1.195312 6.316406 -1.195312 C 4.527344 -1.195312 3.007812 -2.273438 2.824219 -5.492188 L 11.648438 -5.492188 C 11.695312 -5.925781 11.695312 -6.25 11.695312 -6.433594 Z M 6.433594 -10.980469 C 8.433594 -10.980469 9.511719 -9.535156 9.695312 -7.007812 L 2.847656 -7.007812 C 3.078125 -9.601562 4.503906 -10.980469 6.433594 -10.980469 Z M 6.433594 -10.980469 "/></g></g></g><g fill="#773344" fill-opacity="1"><g transform="translate(115.823645, 20.931438)"><g/></g></g><g fill="#773344" fill-opacity="1"><g transform="translate(119.636562, 20.931438)"><g><path d="M 12.726562 -4.160156 C 12.589844 -5.742188 11.96875 -7.191406 10.683594 -7.789062 C 12.152344 -8.246094 13.507812 -9.441406 13.507812 -11.535156 C 13.507812 -14.199219 11.855469 -15.460938 9.558594 -15.761719 C 8.84375 -15.851562 8.292969 -15.851562 7.488281 -15.851562 L 2.296875 -15.851562 L 2.296875 0 L 4.273438 0 L 4.273438 -6.824219 L 7.261719 -6.824219 C 7.628906 -6.824219 8.019531 -6.824219 8.386719 -6.800781 C 9.949219 -6.6875 10.566406 -5.605469 10.753906 -3.972656 C 10.957031 -2.023438 11.164062 -1.011719 11.601562 0 L 13.785156 0 C 13.140625 -0.851562 12.910156 -2.089844 12.726562 -4.160156 Z M 4.273438 -8.433594 L 4.273438 -14.246094 L 7.488281 -14.246094 C 8.203125 -14.246094 8.636719 -14.222656 9.074219 -14.152344 C 10.546875 -13.921875 11.394531 -13.117188 11.394531 -11.347656 C 11.394531 -9.558594 10.316406 -8.617188 8.84375 -8.476562 C 8.410156 -8.433594 8.019531 -8.433594 7.304688 -8.433594 Z M 4.273438 -8.433594 "/></g></g></g><g fill="#773344" fill-opacity="1"><g transform="translate(132.707116, 20.931438)"><g><path d="M 11.695312 -6.433594 C 11.695312 -9.992188 9.832031 -12.5 6.480469 -12.5 C 3.148438 -12.5 0.6875 -9.992188 0.6875 -6.042969 C 0.6875 -1.746094 3.054688 0.320312 6.226562 0.320312 C 8.730469 0.320312 11.050781 -0.988281 11.535156 -3.929688 L 9.464844 -3.929688 C 9.191406 -2.183594 7.902344 -1.195312 6.316406 -1.195312 C 4.527344 -1.195312 3.007812 -2.273438 2.824219 -5.492188 L 11.648438 -5.492188 C 11.695312 -5.925781 11.695312 -6.25 11.695312 -6.433594 Z M 6.433594 -10.980469 C 8.433594 -10.980469 9.511719 -9.535156 9.695312 -7.007812 L 2.847656 -7.007812 C 3.078125 -9.601562 4.503906 -10.980469 6.433594 -10.980469 Z M 6.433594 -10.980469 "/></g></g></g><g fill="#773344" fill-opacity="1"><g transform="translate(144.169638, 20.931438)"><g><path d="M 11.671875 -12.175781 L 9.582031 -12.175781 L 5.925781 -1.449219 L 2.207031 -12.175781 L 0.0234375 -12.175781 L 4.640625 0 L 7.054688 0 Z M 11.671875 -12.175781 "/></g></g></g><g fill="#773344" fill-opacity="1"><g transform="translate(154.828151, 20.931438)"><g><path d="M 2.6875 -16.175781 C 1.976562 -16.175781 1.425781 -15.621094 1.425781 -14.910156 C 1.425781 -14.199219 1.976562 -13.648438 2.6875 -13.648438 C 3.398438 -13.648438 3.953125 -14.199219 3.953125 -14.910156 C 3.953125 -15.621094 3.398438 -16.175781 2.6875 -16.175781 Z M 3.675781 0 L 3.675781 -12.175781 L 1.699219 -12.175781 L 1.699219 0 Z M 3.675781 0 "/></g></g></g><g fill="#773344" fill-opacity="1"><g transform="translate(159.146447, 20.931438)"><g><path d="M 11.695312 -6.433594 C 11.695312 -9.992188 9.832031 -12.5 6.480469 -12.5 C 3.148438 -12.5 0.6875 -9.992188 0.6875 -6.042969 C 0.6875 -1.746094 3.054688 0.320312 6.226562 0.320312 C 8.730469 0.320312 11.050781 -0.988281 11.535156 -3.929688 L 9.464844 -3.929688 C 9.191406 -2.183594 7.902344 -1.195312 6.316406 -1.195312 C 4.527344 -1.195312 3.007812 -2.273438 2.824219 -5.492188 L 11.648438 -5.492188 C 11.695312 -5.925781 11.695312 -6.25 11.695312 -6.433594 Z M 6.433594 -10.980469 C 8.433594 -10.980469 9.511719 -9.535156 9.695312 -7.007812 L 2.847656 -7.007812 C 3.078125 -9.601562 4.503906 -10.980469 6.433594 -10.980469 Z M 6.433594 -10.980469 "/></g></g></g><g fill="#773344" fill-opacity="1"><g transform="translate(170.608964, 20.931438)"><g><path d="M 17.898438 -12.175781 L 15.785156 -12.175781 L 12.957031 -1.953125 L 10.246094 -12.175781 L 7.789062 -12.175781 L 5.125 -1.882812 L 2.296875 -12.175781 L 0.0234375 -12.175781 L 3.90625 0 L 6.25 0 L 8.960938 -10.246094 L 11.671875 0 L 14.015625 0 Z M 17.898438 -12.175781 "/></g></g></g><g fill="#773344" fill-opacity="1"><g transform="translate(187.497146, 20.931438)"><g/></g></g></svg>